<svg width="18" height="18" viewBox="0 0 18 18" version="1.1" xmlns="http://www.w3.org/2000/svg" xmlns:xlink="http://www.w3.org/1999/xlink">
<g id="Canvas" fill="none">
<g id="about">
<g id="Vector">
<path d="M 17.2934 5.49668C 16.8398 4.42441 16.1895 3.46289 15.3633 2.63672C 14.5371 1.81055 13.5756 1.16016 12.5033 0.708398C 11.3941 0.237305 10.2146 0 9 0C 7.78535 0 6.60586 0.237305 5.49668 0.708398C 4.42441 1.16016 3.46289 1.81055 2.63672 2.63672C 1.81055 3.46289 1.16016 4.42441 0.708398 5.49668C 0.237305 6.60586 0 7.78535 0 9C 0 10.2146 0.237305 11.3941 0.708398 12.5033C 1.16016 13.5756 1.81055 14.5371 2.63672 15.3633C 3.46289 16.1895 4.42617 16.8381 5.49668 17.2916C 6.60586 17.7609 7.78535 18 9 18C 10.2146 18 11.3941 17.7627 12.5033 17.2916C 13.5756 16.8398 14.5371 16.1895 15.3633 15.3633C 16.1895 14.5371 16.8381 13.5738 17.2916 12.5033C 17.7609 11.3941 18 10.2146 18 9C 18 7.78535 17.7627 6.60586 17.2934 5.49668ZM 13.043 12.7758C 12.9428 12.8338 12.8338 12.8602 12.7266 12.8602C 12.5086 12.8602 12.2959 12.7459 12.1781 12.5437L 10.8633 10.2656L 7.13672 10.2656L 5.82188 12.5437C 5.64785 12.8461 5.25938 12.9498 4.95703 12.7758C 4.65469 12.6018 4.55098 12.2133 4.725 11.9109L 8.45156 5.45625C 8.56406 5.26113 8.77324 5.13984 9 5.13984C 9.22676 5.13984 9.43418 5.26113 9.54844 5.45625L 13.275 11.9109C 13.449 12.2133 13.3453 12.6 13.043 12.7758Z" fill="#333333"/>
</g>
<g id="Vector_2">
<path d="M 1.07288e-07 1.96172L 2.26406 1.96172L 1.13203 -1.07288e-07L 1.07288e-07 1.96172Z" transform="translate(7.86792 7.03821)" fill="#333333"/>
</g>
</g>
</g>
</svg>

