<svg width="412" height="412" viewBox="0 0 412 412" version="1.1" xmlns="http://www.w3.org/2000/svg" xmlns:xlink="http://www.w3.org/1999/xlink">
<g id="Canvas" fill="none">
<g id="Group">
<g id="Ellipse 2.1">
<g mask="url(#path0_ins)" transform="translate(277.129 109.495) scale(4)">
<ellipse cx="5.95578" cy="5.98078" rx="5.95578" ry="5.98078" stroke-width="10" stroke="#374046"/>
</g>
</g>
<g id="Vector">
<path d="M 16.1936 4.60675C 15.1848 5.54942 15.1311 7.13143 16.0738 8.14025C 17.0165 9.14907 18.5985 9.20269 19.6073 8.26002L 16.1936 4.60675ZM 24.7852 0L 26.6047 -1.71448C 25.6606 -2.71639 24.0842 -2.76653 23.0784 -1.82663L 24.7852 0ZM 36.2599 12.1775L 38.7599 12.1775C 38.7599 11.5401 38.5165 10.9268 38.0794 10.463L 36.2599 12.1775ZM 36.2599 19.5264L 33.7599 19.5264C 33.7599 20.342 34.1576 21.1062 34.8256 21.5741C 35.4936 22.042 36.3478 22.1546 37.1142 21.8759L 36.2599 19.5264ZM 44.6874 19.1222C 45.985 18.6504 46.6545 17.216 46.1827 15.9184C 45.7108 14.6208 44.2764 13.9514 42.9788 14.4232L 44.6874 19.1222ZM -1.70951 36.5464C -2.71697 37.4905 -2.7683 39.0726 -1.82416 40.08C -0.880025 41.0875 0.702055 41.1388 1.70951 40.1947L -1.70951 36.5464ZM 28.1611 20.8694C 27.385 19.7274 25.8302 19.4308 24.6882 20.2068C 23.5462 20.9828 23.2496 22.5377 24.0256 23.6797L 28.1611 20.8694ZM 32.3628 31.5003L 32.9895 33.9205C 33.7768 33.7166 34.4157 33.1426 34.7023 32.3816C 34.989 31.6206 34.8876 30.7677 34.4306 30.0951L 32.3628 31.5003ZM 20.3657 32.0245C 19.0291 32.3706 18.2261 33.7347 18.5722 35.0714C 18.9183 36.408 20.2825 37.211 21.6191 36.8648L 20.3657 32.0245ZM 19.6073 8.26002L 26.4921 1.82663L 23.0784 -1.82663L 16.1936 4.60675L 19.6073 8.26002ZM 33.7599 12.1775L 33.7599 19.5264L 38.7599 19.5264L 38.7599 12.1775L 33.7599 12.1775ZM 37.1142 21.8759L 44.6874 19.1222L 42.9788 14.4232L 35.4056 17.1769L 37.1142 21.8759ZM 22.9657 1.71448L 30.5433 9.75621L 34.1823 6.32724L 26.6047 -1.71448L 22.9657 1.71448ZM 30.5433 9.75621L 34.4404 13.892L 38.0794 10.463L 34.1823 6.32724L 30.5433 9.75621ZM 1.70951 40.1947L 34.0723 9.86589L 30.6533 6.21756L -1.70951 36.5464L 1.70951 40.1947ZM 24.0256 23.6797L 30.2951 32.9054L 34.4306 30.0951L 28.1611 20.8694L 24.0256 23.6797ZM 31.7361 29.0801L 20.3657 32.0245L 21.6191 36.8648L 32.9895 33.9205L 31.7361 29.0801Z" transform="translate(138.001 139.743) scale(4)" fill="#374046"/>
</g>
<g id="Line">
<line x1="2.5" y1="-2.5" x2="18.1654" y2="-2.5" stroke-width="5" stroke-linecap="round" stroke-linejoin="round" transform="translate(174.1 175.45) scale(-4)" stroke="#374046"/>
</g>
<g id="Line_2">
<line x1="2.5" y1="-2.5" x2="18.1654" y2="-2.5" stroke-width="5" stroke-linecap="round" stroke-linejoin="round" transform="translate(157.928 206.071) scale(-4)" stroke="#374046"/>
</g>
<g id="Line_3">
<line x1="2.5" y1="-2.5" x2="18.1654" y2="-2.5" stroke-width="5" stroke-linecap="round" stroke-linejoin="round" transform="translate(132.77 236.693) scale(-4)" stroke="#374046"/>
</g>
<g id="Ellipse 3">
<circle cx="51.5" cy="51.5" r="49" stroke-width="5" transform="scale(4)" stroke="#374046"/>
</g>
</g>
</g>
<defs>

<mask id="path0_ins" fill="white">
<ellipse cx="5.95578" cy="5.98078" rx="5.95578" ry="5.98078"/>
</mask>

</defs>
</svg>

