<svg width="17" height="18" viewBox="0 0 17 18" version="1.1" xmlns="http://www.w3.org/2000/svg" xmlns:xlink="http://www.w3.org/1999/xlink">
<g id="Canvas" fill="none">
<g id="Vector">
<path d="M 10.4217 -2.827e-08L 6.40773 -2.827e-08C 5.91537 -2.827e-08 5.52176 0.430753 5.52176 0.963085C 5.52176 1.49659 5.91604 1.92862 6.40773 1.92862L 10.4466 1.92862C 10.9141 1.92862 11.3083 1.49661 11.3083 0.963085C 11.3084 0.43065 10.9147 -2.827e-08 10.4217 -2.827e-08ZM 14.7802 0.642769L 12.7813 0.642769C 12.8017 0.748233 12.8134 0.855012 12.8134 0.963064C 12.814 1.77361 12.2159 2.57147 11.5045 2.57147L 5.36364 2.57147C 4.61482 2.57147 4.01597 1.77361 4.01597 0.963064C 4.01668 0.855012 4.02841 0.748233 4.04872 0.642769L 2.02569 0.642769C 0.399595 0.642769 1.00731e-09 1.54916 1.00731e-09 2.85676L 1.00731e-09 15.8092C 1.00731e-09 17.2138 0.572074 18 2.14851 18L 14.6572 18C 16.2337 18 17 17.3836 17 15.8099L 17 2.85679C 17.0001 1.54928 16.2826 0.642892 14.7802 0.642892L 14.7802 0.642769L 14.7802 0.642769ZM 12.7265 13.4313L 4.03426 13.4313C 3.71386 13.4313 3.39407 13.0449 3.39407 12.7293C 3.39407 12.4149 3.66472 12.1455 3.98514 12.1455L 12.6526 12.1455C 12.9729 12.1455 13.2436 12.3904 13.268 12.7293C 13.268 13.045 13.0468 13.4313 12.7265 13.4313ZM 12.7619 10.0017L 4.06946 10.0017C 3.74906 10.0017 3.54502 9.66303 3.54502 9.34728C 3.54502 9.03167 3.81588 8.71604 4.1362 8.71604L 12.8037 8.71604C 13.1241 8.71604 13.3947 9.00849 13.4189 9.34728C 13.4189 9.66293 13.0816 10.0017 12.7619 10.0017ZM 12.7619 6.47948L 4.06946 6.47948C 3.74906 6.47948 3.54502 6.1406 3.54502 5.82499C 3.54502 5.50936 3.81588 5.19375 4.1362 5.19375L 12.8037 5.19375C 13.1241 5.19375 13.3947 5.48631 13.4189 5.82499C 13.4189 6.1406 13.0816 6.47948 12.7619 6.47948Z" fill="#333333"/>
</g>
</g>
</svg>

