<svg width="12" height="13" viewBox="0 0 12 13" version="1.1" xmlns="http://www.w3.org/2000/svg" xmlns:xlink="http://www.w3.org/1999/xlink">
<g id="Canvas" fill="none">
<g id="Vector">
<path d="M 7.65943 6.12837C 8.73975 5.55715 9.33302 4.49174 9.33302 3.26026C 9.33402 1.46257 7.83781 0 5.99887 0C 4.15892 0 2.66271 1.46257 2.66271 3.26026C 2.66271 4.49274 3.20387 5.55715 4.28419 6.12837C 1.82992 6.81463 -1.34132e-08 9.19355 -1.34132e-08 11.8496C -1.34132e-08 12.4008 0.0390838 12.988 1.24267 12.997C 2.31697 13.005 8.53931 12.994 10.7591 12.997C 11.7442 12.998 11.9947 12.4248 11.9997 11.8496C 12.0258 9.21756 10.1177 6.81463 7.65943 6.12837Z" fill="#288FC9"/>
</g>
</g>
</svg>

