<svg width="12" height="16" viewBox="0 0 12 16" version="1.1" xmlns="http://www.w3.org/2000/svg" xmlns:xlink="http://www.w3.org/1999/xlink">
<g id="Canvas" fill="none">
<g id="position">
<rect width="12" height="16" fill="white"/>
<g id="Vector">
<path d="M 6 1.36376e-08C 2.68547 1.36376e-08 0 2.80997 0 6.27416C 0 9.73835 4.61026 16 6 16C 7.38974 16 12 9.74014 12 6.27416C 12 2.80818 9.31453 1.36376e-08 6 1.36376e-08ZM 6 9.4309C 4.33333 9.4309 2.9812 8.01877 2.9812 6.27416C 2.9812 4.52955 4.33162 3.11742 6 3.11742C 7.66838 3.11742 9.0188 4.52955 9.0188 6.27416C 9.0188 8.01877 7.66667 9.4309 6 9.4309Z" fill="#288FC9"/>
</g>
</g>
</g>
</svg>

