<svg width="18" height="20" viewBox="0 0 18 20" version="1.1" xmlns="http://www.w3.org/2000/svg" xmlns:xlink="http://www.w3.org/1999/xlink">
<g id="Canvas" fill="none">
<g id="run">
<rect width="18" height="20" fill="white"/>
<g id="Vector">
<path d="M 13.608 8.99083L 12.636 7.3211L 11.979 9.95413L 14.22 14.1193L 14.22 20L 12.6 20L 12.6 15.4128L 10.503 12.5596L 9.063 16.6972L 4.725 18.6239L 3.78 17.2477L 7.551 14.9817L 9.819 5.93578L 7.92 6.54128L 7.92 9.90826L 6.3 9.90826L 6.3 5.13761L 11.178 3.58716L 11.628 3.51376C 12.186 3.51376 12.672 3.82569 12.942 4.2844L 14.742 7.33945L 18 7.33945L 18 8.99083L 13.608 8.99083ZM 13.5 3.30275C 12.6 3.30275 11.88 2.56881 11.88 1.65138C 11.88 0.733945 12.6 -3.7692e-09 13.5 -3.7692e-09C 14.4 -3.7692e-09 15.12 0.733945 15.12 1.65138C 15.12 2.56881 14.4 3.30275 13.5 3.30275ZM 4.5 8.07339L 4.5 9.90826L 1.8 9.90826C 1.56131 9.90826 1.33239 9.8116 1.1636 9.63955C 0.994821 9.4675 0.9 9.23414 0.9 8.99083C 0.9 8.74751 0.994821 8.51416 1.1636 8.3421C 1.33239 8.17005 1.56131 8.07339 1.8 8.07339L 4.5 8.07339ZM 6.525 11.7431L 6.075 13.578L 2.7 13.578C 2.46131 13.578 2.23239 13.4813 2.0636 13.3093C 1.89482 13.1372 1.8 12.9039 1.8 12.6606C 1.8 12.4172 1.89482 12.1839 2.0636 12.0118C 2.23239 11.8398 2.46131 11.7431 2.7 11.7431L 6.525 11.7431ZM 4.5 4.40367L 4.5 6.23853L 0.9 6.23853C 0.78181 6.23853 0.664778 6.2148 0.555585 6.1687C 0.446392 6.12259 0.347177 6.05501 0.263604 5.96982C 0.180031 5.88463 0.113738 5.78349 0.0685084 5.67219C 0.0232792 5.56088 6.06754e-08 5.44158 6.06754e-08 5.3211C 6.06754e-08 5.07778 0.0948211 4.84443 0.263604 4.67238C 0.432387 4.50033 0.661305 4.40367 0.9 4.40367L 4.5 4.40367Z" fill="black"/>
</g>
</g>
</g>
</svg>

