<svg width="18" height="18" viewBox="0 0 18 18" version="1.1" xmlns="http://www.w3.org/2000/svg" xmlns:xlink="http://www.w3.org/1999/xlink">
<g id="Canvas" fill="none">
<g id="setting">
<g id="Vector">
<path d="M 17.7167 7.18216C 17.6642 7.0578 17.545 6.97456 17.41 6.96789L 15.968 6.89732C 15.8122 6.40554 15.6035 5.93184 15.3453 5.48382L 16.333 4.36434C 16.4342 4.2497 16.4494 4.08287 16.3706 3.95183C 15.2812 2.13924 13.9286 1.57369 13.8715 1.55054C 13.7463 1.49964 13.603 1.52496 13.5029 1.61549L 12.3649 2.64535C 11.9655 2.44243 11.5407 2.27588 11.0967 2.14802L 11.02 0.588966C 11.0134 0.45419 10.9299 0.335154 10.8054 0.282751C 10.7659 0.266123 10.0962 -0.00779574 9 0.000170364C 7.90375 -0.00779574 7.2341 0.266123 7.19456 0.282751C 7.07006 0.335154 6.98661 0.45419 6.98003 0.588966L 6.90333 2.14802C 6.45932 2.27588 6.03448 2.44243 5.63508 2.64535L 4.49708 1.61546C 4.397 1.52493 4.25373 1.49962 4.12848 1.55051C 4.07139 1.57367 2.71883 2.13921 1.62936 3.95181C 1.5506 4.08284 1.56581 4.24968 1.667 4.36432L 2.65471 5.4838C 2.39652 5.93182 2.1878 6.40551 2.03195 6.8973L 0.590026 6.96787C 0.45502 6.97454 0.33578 7.05777 0.283287 7.18214C 0.259444 7.23876 -0.296564 8.59348 0.216998 10.6442C 0.254181 10.7925 0.383106 10.8997 0.53585 10.9094C 0.674245 10.9181 0.811871 10.9217 0.945003 10.925C 1.28553 10.9338 1.6072 10.942 1.90586 11.0337C 2.00482 11.064 2.05702 11.2276 2.12547 11.4737C 2.15571 11.5825 2.18695 11.6949 2.23079 11.8022C 2.27295 11.9052 2.31905 12.0031 2.36376 12.0978C 2.39436 12.1626 2.42317 12.2239 2.45041 12.2858C 2.52054 12.4453 2.5134 12.515 2.51097 12.5285C 2.43906 12.6146 2.36085 12.6982 2.27812 12.7868C 2.2356 12.8323 2.19167 12.8794 2.14838 12.927L 1.61847 13.5106C 1.52769 13.6105 1.50243 13.7537 1.55331 13.8786C 1.5766 13.9355 2.14292 15.2857 3.95881 16.3735C 4.09007 16.4521 4.25719 16.4368 4.372 16.3359L 4.92342 15.8509C 4.97853 15.8026 5.03261 15.7492 5.08491 15.6977C 5.29755 15.4881 5.41417 15.3939 5.5014 15.4262C 5.57903 15.4549 5.66364 15.5005 5.75319 15.5488C 5.83131 15.5909 5.91207 15.6344 5.999 15.6728C 6.1403 15.7353 6.28368 15.7828 6.42224 15.8288C 6.5826 15.8819 6.73414 15.9322 6.86427 15.9994C 6.89994 16.0177 6.90953 16.0227 6.91967 16.183C 6.93674 16.4526 6.94904 16.7288 6.96087 16.996C 6.96707 17.1343 6.97327 17.2728 6.98003 17.411C 6.98671 17.5457 7.07006 17.6647 7.19466 17.7171C 7.23353 17.7335 7.88455 18 8.95318 18C 8.96089 18 9.0391 18 9.04682 18C 10.1155 18 10.7665 17.7335 10.8053 17.7171C 10.9299 17.6647 11.0133 17.5457 11.02 17.411C 11.0267 17.2728 11.0329 17.1343 11.0391 16.996C 11.051 16.7288 11.0633 16.4526 11.0803 16.183C 11.0905 16.0227 11.1001 16.0177 11.1357 15.9994C 11.2659 15.9322 11.4174 15.8819 11.5778 15.8288C 11.7163 15.7828 11.8597 15.7353 12.001 15.6728C 12.0879 15.6344 12.1687 15.5909 12.2468 15.5488C 12.3364 15.5005 12.421 15.4549 12.4986 15.4262C 12.5858 15.3939 12.7024 15.4881 12.9151 15.6977C 12.9674 15.7492 13.0215 15.8026 13.0766 15.8509L 13.628 16.3359C 13.7428 16.4368 13.9099 16.4521 14.0412 16.3735C 15.8571 15.2857 16.4234 13.9355 16.4467 13.8786C 16.4976 13.7537 16.4723 13.6105 16.3815 13.5106L 15.8516 12.927C 15.8083 12.8794 15.7644 12.8323 15.7219 12.7868C 15.6391 12.6982 15.5609 12.6146 15.489 12.5285C 15.4866 12.515 15.4795 12.4453 15.5496 12.2858C 15.5768 12.2239 15.6056 12.1626 15.6362 12.0978C 15.6809 12.0031 15.727 11.9052 15.7692 11.8022C 15.813 11.6949 15.8443 11.5825 15.8745 11.4737C 15.943 11.2276 15.9952 11.064 16.0941 11.0337C 16.3928 10.942 16.7145 10.9338 17.055 10.925C 17.1881 10.9217 17.3258 10.9181 17.4641 10.9094C 17.6169 10.8997 17.7458 10.7925 17.783 10.6442C 18.2966 8.5935 17.7406 7.23879 17.7167 7.18216ZM 12.1024 12.0971C 11.2738 12.9243 10.1719 13.38 9 13.38C 7.82809 13.38 6.72621 12.9243 5.89757 12.0971C 5.06891 11.2699 4.61252 10.1699 4.61252 8.99996C 4.61252 7.83005 5.06891 6.73016 5.89757 5.90293C 6.72631 5.07558 7.82809 4.62008 9 4.62008C 10.1719 4.62008 11.2738 5.07558 12.1024 5.90293C 12.9311 6.73016 13.3875 7.83005 13.3875 8.99996C 13.3875 10.1699 12.9312 11.2699 12.1024 12.0971Z" fill="#333333"/>
</g>
</g>
</g>
</svg>

