<svg width="12" height="12" viewBox="0 0 12 12" version="1.1" xmlns="http://www.w3.org/2000/svg" xmlns:xlink="http://www.w3.org/1999/xlink">
<g id="Canvas" fill="none">
<g id="time">
<g id="Vector">
<path d="M 6 2.46241e-08C 2.6862 2.46241e-08 3.68214e-08 2.6862 3.68214e-08 6C 3.68214e-08 9.3138 2.6862 12 6 12C 9.3138 12 12 9.3138 12 6C 12 2.6862 9.3138 2.46241e-08 6 2.46241e-08ZM 8.40168 8.42253C 8.24024 8.58592 8.02797 8.66667 7.81638 8.66667C 7.60416 8.66667 7.3926 8.58592 7.23112 8.42253L 5.57617 6.7565C 5.42642 6.60676 5.33397 6.39843 5.33334 6.16927L 5.33334 2.83333C 5.33334 2.37236 5.70377 2.00001 6.16081 2.00001C 6.61851 2.00001 6.98892 2.37236 6.98892 2.83333L 6.98892 5.82162L 8.4017 7.24414C 8.7246 7.56899 8.7246 8.09764 8.40168 8.42253Z" fill="#288FC9"/>
</g>
</g>
</g>
</svg>

