<svg width="15" height="13" viewBox="0 0 15 13" version="1.1" xmlns="http://www.w3.org/2000/svg" xmlns:xlink="http://www.w3.org/1999/xlink">
<g id="Canvas" fill="none">
<g id="Vector">
<path d="M 1.66667 4.875L 2.91667 1.21875L 12.0833 1.21875L 13.3333 4.875L 1.66667 4.875ZM 12.0833 8.9375C 11.7518 8.9375 11.4339 8.8091 11.1994 8.58054C 10.965 8.35198 10.8333 8.04198 10.8333 7.71875C 10.8333 7.39552 10.965 7.08552 11.1994 6.85696C 11.4339 6.6284 11.7518 6.5 12.0833 6.5C 12.4149 6.5 12.7328 6.6284 12.9672 6.85696C 13.2016 7.08552 13.3333 7.39552 13.3333 7.71875C 13.3333 8.04198 13.2016 8.35198 12.9672 8.58054C 12.7328 8.8091 12.4149 8.9375 12.0833 8.9375ZM 2.91667 8.9375C 2.58515 8.9375 2.2672 8.8091 2.03278 8.58054C 1.79836 8.35198 1.66667 8.04198 1.66667 7.71875C 1.66667 7.39552 1.79836 7.08552 2.03278 6.85696C 2.2672 6.6284 2.58515 6.5 2.91667 6.5C 3.24819 6.5 3.56613 6.6284 3.80055 6.85696C 4.03497 7.08552 4.16667 7.39552 4.16667 7.71875C 4.16667 8.04198 4.03497 8.35198 3.80055 8.58054C 3.56613 8.8091 3.24819 8.9375 2.91667 8.9375ZM 13.2667 0.8125C 13.1 0.34125 12.6333 -9.05099e-08 12.0833 -9.05099e-08L 2.91667 -9.05099e-08C 2.36667 -9.05099e-08 1.9 0.34125 1.73333 0.8125L 0 5.6875L 0 12.1875C 0 12.403 0.0877974 12.6097 0.244078 12.762C 0.400358 12.9144 0.61232 13 0.833333 13L 1.66667 13C 1.88768 13 2.09964 12.9144 2.25592 12.762C 2.4122 12.6097 2.5 12.403 2.5 12.1875L 2.5 11.375L 12.5 11.375L 12.5 12.1875C 12.5 12.403 12.5878 12.6097 12.7441 12.762C 12.9004 12.9144 13.1123 13 13.3333 13L 14.1667 13C 14.3877 13 14.5996 12.9144 14.7559 12.762C 14.9122 12.6097 15 12.403 15 12.1875L 15 5.6875L 13.2667 0.8125Z" fill="#288FC9"/>
</g>
</g>
</svg>

